<svg width="49" height="19" viewBox="0 0 49 19" fill="none" xmlns="http://www.w3.org/2000/svg">
<path d="M3.31888 0.327999H15.7029V3.424H4.63888C4.41488 3.424 4.22288 3.496 4.06288 3.64C3.91888 3.784 3.84688 3.96 3.84688 4.168V7.312C3.84688 7.536 3.92688 7.728 4.08688 7.888C4.24688 8.048 4.43088 8.128 4.63888 8.128H13.5909C14.3269 8.128 14.9509 8.392 15.4629 8.92C15.9909 9.432 16.2549 10.056 16.2549 10.792V16.336C16.2549 17.088 15.9909 17.72 15.4629 18.232C14.9509 18.744 14.3269 19 13.5909 19H1.18288V15.904H12.2469C12.4709 15.904 12.6549 15.832 12.7989 15.688C12.9589 15.544 13.0389 15.368 13.0389 15.16V12.016C13.0389 11.808 12.9589 11.624 12.7989 11.464C12.6549 11.304 12.4709 11.224 12.2469 11.224H3.31888C2.58288 11.224 1.95088 10.968 1.42288 10.456C0.910875 9.928 0.654875 9.288 0.654875 8.536V2.992C0.654875 2.24 0.910875 1.608 1.42288 1.096C1.95088 0.583999 2.58288 0.327999 3.31888 0.327999ZM18.0843 0.327999H33.6843V3.424H27.4923V19H24.2763V3.424H18.0843V0.327999ZM38.1939 0.327999H47.9139V3.424H39.5139C39.2899 3.424 39.0979 3.496 38.9379 3.64C38.7939 3.784 38.7219 3.96 38.7219 4.168V7.384H45.7779C46.5299 7.384 47.1619 7.648 47.6739 8.176C48.2019 8.688 48.4659 9.312 48.4659 10.048V16.336C48.4659 17.072 48.2019 17.704 47.6739 18.232C47.1619 18.744 46.5299 19 45.7779 19H38.1939C37.4579 19 36.8259 18.744 36.2979 18.232C35.7859 17.72 35.5299 17.088 35.5299 16.336V2.992C35.5299 2.24 35.7859 1.608 36.2979 1.096C36.8259 0.583999 37.4579 0.327999 38.1939 0.327999ZM38.7219 10.456V15.16C38.7219 15.368 38.7939 15.544 38.9379 15.688C39.0979 15.832 39.2899 15.904 39.5139 15.904H44.4579C44.6819 15.904 44.8659 15.832 45.0099 15.688C45.1699 15.544 45.2499 15.368 45.2499 15.16V11.272C45.2499 11.048 45.1699 10.856 45.0099 10.696C44.8499 10.536 44.6659 10.456 44.4579 10.456H38.7219Z" fill="white"/>
</svg>
