<svg width="165" height="19" viewBox="0 0 165 19" fill="none" xmlns="http://www.w3.org/2000/svg">
<path d="M2.73684 0.327999H15.1208V3.424H4.05684C3.83284 3.424 3.64084 3.496 3.48084 3.64C3.33684 3.784 3.26484 3.96 3.26484 4.168V7.312C3.26484 7.536 3.34484 7.728 3.50484 7.888C3.66484 8.048 3.84884 8.128 4.05684 8.128H13.0088C13.7448 8.128 14.3688 8.392 14.8808 8.92C15.4088 9.432 15.6728 10.056 15.6728 10.792V16.336C15.6728 17.088 15.4088 17.72 14.8808 18.232C14.3688 18.744 13.7448 19 13.0088 19H0.600844V15.904H11.6648C11.8888 15.904 12.0728 15.832 12.2168 15.688C12.3768 15.544 12.4568 15.368 12.4568 15.16V12.016C12.4568 11.808 12.3768 11.624 12.2168 11.464C12.0728 11.304 11.8888 11.224 11.6648 11.224H2.73684C2.00084 11.224 1.36884 10.968 0.840844 10.456C0.328844 9.928 0.0728438 9.288 0.0728438 8.536V2.992C0.0728438 2.24 0.328844 1.608 0.840844 1.096C1.36884 0.583999 2.00084 0.327999 2.73684 0.327999ZM18.8463 0.327999H22.0383V19H18.8463V0.327999ZM23.8773 0.327999H27.8613L33.1413 7.576L38.4453 0.327999H42.4053L35.1333 9.664L42.4053 19H38.4453L33.1413 11.752L27.8613 19H23.8773L31.1493 9.664L23.8773 0.327999ZM50.1976 0.327999H65.7976V3.424H59.6056V19H56.3896V3.424H50.1976V0.327999ZM67.6432 0.327999H80.5792C81.3152 0.327999 81.9392 0.583999 82.4512 1.096C82.9792 1.608 83.2432 2.24 83.2432 2.992V9.928C83.2432 10.664 82.9792 11.296 82.4512 11.824C81.9392 12.336 81.3152 12.592 80.5792 12.592H80.4112L84.6832 19H80.7712L76.5232 12.592H70.8352V19H67.6432V0.327999ZM70.8352 9.496H79.2352C79.4592 9.496 79.6432 9.424 79.7872 9.28C79.9472 9.136 80.0272 8.96 80.0272 8.752V4.168C80.0272 3.96 79.9472 3.784 79.7872 3.64C79.6432 3.496 79.4592 3.424 79.2352 3.424H70.8352V9.496ZM91.7926 0.327999H96.8566L103.601 19H100.241L98.6326 14.632H90.0406L88.4326 19H85.0726L91.7926 0.327999ZM91.1926 11.536H97.4806L94.3366 2.968L91.1926 11.536ZM108.64 3.424V15.904H115.768C116.328 15.904 116.808 15.712 117.208 15.328C117.624 14.928 117.832 14.448 117.832 13.888V5.464C117.832 4.904 117.624 4.424 117.208 4.024C116.808 3.624 116.328 3.424 115.768 3.424H108.64ZM105.448 0.327999H117.04C118.128 0.327999 119.064 0.727999 119.848 1.528C120.648 2.312 121.048 3.248 121.048 4.336V14.992C121.048 16.08 120.648 17.024 119.848 17.824C119.064 18.608 118.128 19 117.04 19H105.448V0.327999ZM124.221 0.327999H127.413V19H124.221V0.327999ZM130.596 0.327999H133.788L142.98 13.768V0.327999H146.196V19H142.98L133.788 5.56V19H130.596V0.327999ZM152.034 0.327999H162.306C163.042 0.327999 163.666 0.583999 164.178 1.096C164.706 1.608 164.97 2.24 164.97 2.992V5.08H161.754V4.168C161.754 3.96 161.674 3.784 161.514 3.64C161.37 3.496 161.186 3.424 160.962 3.424H153.354C153.13 3.424 152.938 3.496 152.778 3.64C152.634 3.784 152.562 3.96 152.562 4.168V15.16C152.562 15.368 152.634 15.544 152.778 15.688C152.938 15.832 153.13 15.904 153.354 15.904H160.962C161.186 15.904 161.37 15.832 161.514 15.688C161.674 15.544 161.754 15.368 161.754 15.16V11.968H157.602V8.872H164.97V16.336C164.97 17.088 164.706 17.72 164.178 18.232C163.666 18.744 163.042 19 162.306 19H152.034C151.298 19 150.666 18.744 150.138 18.232C149.626 17.72 149.37 17.088 149.37 16.336V2.992C149.37 2.24 149.626 1.608 150.138 1.096C150.666 0.583999 151.298 0.327999 152.034 0.327999Z" fill="#F2F5F8"/>
</svg>
