<svg width="367" height="24" viewBox="0 0 367 24" fill="none" xmlns="http://www.w3.org/2000/svg">
<path d="M15.4502 16.5203L12.4402 13.5103C12.3302 13.4003 12.2002 13.3803 12.1302 13.3803C12.0602 13.3803 11.9302 13.4003 11.8202 13.5103L8.80016 16.5303C8.46016 16.8703 7.93016 17.4203 6.16016 17.4203L9.87016 21.1203C10.4327 21.6821 11.1952 21.9977 11.9902 21.9977C12.7852 21.9977 13.5477 21.6821 14.1102 21.1203L17.8302 17.4103C16.9202 17.4103 16.1602 17.2303 15.4502 16.5203ZM8.80016 7.47029L11.8202 10.4903C11.9002 10.5703 12.0202 10.6203 12.1302 10.6203C12.2402 10.6203 12.3602 10.5703 12.4402 10.4903L15.4302 7.50029C16.1402 6.76029 16.9502 6.59029 17.8602 6.59029L14.1402 2.88029C13.5777 2.31849 12.8152 2.00293 12.0202 2.00293C11.2252 2.00293 10.4627 2.31849 9.90016 2.88029L6.19016 6.58029C7.95016 6.58029 8.49016 7.16029 8.80016 7.47029Z" fill="white"/>
<path d="M21.1093 9.85031L18.8593 7.59031H17.5993C17.0593 7.59031 16.5193 7.81031 16.1493 8.20031L13.1493 11.2003C12.8693 11.4803 12.4993 11.6203 12.1293 11.6203C11.7483 11.6149 11.3836 11.4648 11.1093 11.2003L8.08931 8.17031C7.70931 7.79031 7.18931 7.57031 6.63931 7.57031H5.16931L2.87931 9.87031C2.31751 10.4328 2.00195 11.1953 2.00195 11.9903C2.00195 12.7853 2.31751 13.5478 2.87931 14.1103L5.16931 16.4103H6.64931C7.18931 16.4103 7.70931 16.1903 8.09931 15.8103L11.1193 12.7903C11.3993 12.5103 11.7693 12.3703 12.1393 12.3703C12.5093 12.3703 12.8793 12.5103 13.1593 12.7903L16.1693 15.8003C16.5493 16.1803 17.0693 16.4003 17.6193 16.4003H18.8793L21.1293 14.1403C21.6935 13.5677 22.0081 12.795 22.0043 11.9912C22.0006 11.1873 21.6788 10.4177 21.1093 9.85031Z" fill="white"/>
<path fill-rule="evenodd" clip-rule="evenodd" d="M60.0001 17.8417C58.906 18.7017 57.592 19.2365 56.2083 19.385C54.8246 19.5335 53.427 19.2897 52.1753 18.6815C50.9236 18.0733 49.8682 17.1251 49.1299 15.9455C48.3915 14.7658 48 13.4022 48 12.0106C48 10.6189 48.3915 9.2553 49.1299 8.07564C49.8682 6.89597 50.9236 5.94785 52.1753 5.33961C53.427 4.73138 54.8246 4.48759 56.2083 4.63611C57.592 4.78462 58.906 5.31942 60.0001 6.17939C61.0942 5.31942 62.4081 4.78462 63.7918 4.63611C65.1755 4.48759 66.5731 4.73139 67.8247 5.33962C69.0764 5.94786 70.1317 6.89599 70.87 8.07565C71.6083 9.25531 71.9998 10.6189 71.9998 12.0105C71.9998 13.4022 71.6083 14.7658 70.87 15.9454C70.1317 17.1251 69.0764 18.0732 67.8247 18.6814C66.5731 19.2897 65.1755 19.5335 63.7918 19.385C62.4081 19.2365 61.0942 18.7017 60.0001 17.8417ZM57.1674 12.0106C57.1664 10.8874 57.4209 9.77874 57.9117 8.7685C58.4024 7.75828 59.1166 6.87296 60.0001 6.17954C60.8828 6.87365 61.5964 7.75912 62.0871 8.76917C62.5778 9.77925 62.8328 10.8876 62.8328 12.0105C62.8328 13.1335 62.5778 14.2418 62.0871 15.2519C61.5964 16.262 60.8828 17.1474 60.0001 17.8416C59.1166 17.1481 58.4024 16.2628 57.9117 15.2526C57.4209 14.2424 57.1664 13.1337 57.1674 12.0106ZM61.2135 17.7629C62.0247 18.2381 62.9303 18.5382 63.8718 18.6392C65.1156 18.7727 66.3718 18.5536 67.497 18.0069C68.6221 17.4601 69.5707 16.6079 70.2343 15.5475C70.8979 14.4872 71.2498 13.2615 71.2498 12.0106C71.2498 10.7596 70.8979 9.5339 70.2343 8.47354C69.5707 7.41318 68.6221 6.56092 67.497 6.0142C66.3718 5.46747 65.1156 5.24833 63.8718 5.38182C62.9303 5.48288 62.0247 5.78293 61.2135 6.25813C61.8445 6.8942 62.3682 7.63144 62.7617 8.44144C63.302 9.55365 63.5828 10.774 63.5828 12.0105C63.5828 13.247 63.302 14.4674 62.7617 15.5796C62.3682 16.3896 61.8445 17.1269 61.2135 17.7629Z" fill="white"/>
<path d="M71.2924 16.3674V16.6062H71.2398V16.3674H71.1435V16.3188H71.3887V16.3674H71.2924Z" fill="white"/>
<path d="M71.7685 16.3183V16.6062H71.7154V16.3885L71.6344 16.5762H71.5793L71.4983 16.389V16.6062H71.4452V16.3183H71.5204L71.6069 16.5163L71.6933 16.3183H71.7685Z" fill="white"/>
<path d="M107.883 8.24628L106.28 15.7425H104.34L105.944 8.24628H107.883ZM116.042 13.0867L117.063 10.2717L117.65 13.0867H116.042ZM118.207 15.7425H120L118.433 8.24628H116.779C116.406 8.24628 116.092 8.46243 115.953 8.79575L113.043 15.7425H115.08L115.484 14.623H117.972L118.207 15.7425ZM113.144 13.2952C113.153 11.3169 110.409 11.2073 110.428 10.3233C110.434 10.0547 110.69 9.76859 111.25 9.69542C111.528 9.65967 112.294 9.63067 113.163 10.0309L113.502 8.44068C113.036 8.27191 112.435 8.10938 111.688 8.10938C109.771 8.10938 108.422 9.12773 108.412 10.5872C108.399 11.6664 109.375 12.2681 110.109 12.6276C110.865 12.995 111.118 13.2305 111.115 13.5588C111.109 14.0617 110.512 14.2844 109.955 14.2929C108.979 14.308 108.414 14.0292 107.963 13.8191L107.611 15.4624C108.065 15.6702 108.901 15.8509 109.767 15.8602C111.805 15.8602 113.138 14.8538 113.144 13.2952ZM105.112 8.24628L101.97 15.7425H99.9202L98.3737 9.75999C98.28 9.3921 98.1982 9.25688 97.9131 9.10143C97.4468 8.84819 96.6769 8.6113 96 8.46395L96.0459 8.24628H99.3457C99.7661 8.24628 100.144 8.52599 100.241 9.01022L101.057 13.3483L103.075 8.24628H105.112Z" fill="white"/>
<path d="M144.748 15.6161C144.642 15.4436 144.497 15.1678 144.41 14.9648C143.895 13.7699 143.871 12.5334 144.305 11.3463C144.783 10.0445 145.696 9.04785 146.876 8.54035C148.359 7.9022 149.999 8.02802 151.42 8.87132C152.323 9.38929 152.963 10.1891 153.449 11.3197L153.494 11.4296L153.578 11.6481C153.592 11.6833 153.605 11.7176 153.618 11.7504L144.748 15.6161ZM147.71 10.4586C146.657 10.9112 146.114 11.899 146.226 13.0572L150.687 11.1373C149.92 10.2358 148.921 9.937 147.71 10.4586ZM152.967 15.7887L151.243 14.6359L151.24 14.6384L151.148 14.5761C150.882 15.0081 150.467 15.358 149.942 15.5852C148.945 16.0189 148.021 15.9073 147.358 15.3254L147.297 15.4182C147.296 15.4171 147.296 15.4163 147.295 15.4163L146.163 17.1094C146.444 17.3046 146.746 17.47 147.062 17.6021C148.313 18.1214 149.592 18.0974 150.852 17.5493C151.763 17.1544 152.478 16.552 152.967 15.7887ZM156.718 6.04688V15.4598L158.182 16.053L157.35 17.9933L155.735 17.3206C155.372 17.1637 155.125 16.9234 154.939 16.6522C154.76 16.3757 154.626 15.9963 154.626 15.4855V6.04688H156.718ZM160.51 13.0619C160.511 12.2603 160.864 11.5415 161.424 11.053L159.923 9.37878C158.905 10.2789 158.263 11.5941 158.262 13.0596C158.26 14.5255 158.901 15.8421 159.918 16.7445L161.418 15.0687C160.861 14.5782 160.509 13.8616 160.51 13.0619ZM163.177 15.7336C162.882 15.7327 162.597 15.6839 162.331 15.5955L161.614 17.7275C162.104 17.8921 162.629 17.9817 163.175 17.9826C165.552 17.9849 167.537 16.2981 167.997 14.0556L165.793 13.6056C165.543 14.8211 164.467 15.7344 163.177 15.7336ZM163.184 8.14628C162.639 8.14565 162.114 8.23423 161.625 8.39728L162.336 10.5312C162.602 10.4432 162.887 10.3946 163.182 10.3946C164.474 10.3959 165.551 11.3147 165.796 12.5336L168 12.0865C167.546 9.84082 165.563 8.14772 163.184 8.14628Z" fill="white"/>
<path fill-rule="evenodd" clip-rule="evenodd" d="M192.435 12.1926C192.435 6.66151 196.918 2.17773 202.449 2.17773C207.98 2.17773 212.464 6.66151 212.464 12.1926C212.464 17.7237 207.98 22.2077 202.449 22.2077C196.918 22.2077 192.435 17.7237 192.435 12.1926" fill="#1E1C1C"/>
<path fill-rule="evenodd" clip-rule="evenodd" d="M208.506 11.9954C208.502 9.4308 206.899 7.24352 204.64 6.3773V17.6131C206.899 16.7458 208.502 14.5605 208.506 11.9954ZM200.33 17.611V6.37849C198.074 7.2474 196.473 9.43153 196.467 11.9955C196.473 14.5588 198.074 16.7427 200.33 17.611ZM202.486 2.49854C197.241 2.50056 192.992 6.75065 192.991 11.9954C192.992 17.2396 197.241 21.489 202.486 21.4899C207.731 21.489 211.981 17.2396 211.982 11.9954C211.981 6.75065 207.731 2.50056 202.486 2.49854ZM202.463 22.3861C196.724 22.4134 192 17.7638 192 12.1038C192 5.91803 196.724 1.63951 202.463 1.64063H205.153C210.824 1.63951 216 5.91601 216 12.1038C216 17.7618 210.824 22.3861 205.153 22.3861H202.463Z" fill="white"/>
<path d="M246.588 6.79688H244.101C243.002 6.84884 242.104 7.29151 241.844 8.20436C241.709 8.68043 241.635 9.20329 241.529 9.69679C240.991 12.2061 240.514 14.7846 240 17.2438H259.365C260.862 17.2438 261.89 16.9274 262.168 15.7393C262.297 15.1873 262.421 14.5621 262.544 13.9556C263.025 11.5911 263.507 9.2268 264 6.79688H246.588Z" fill="white"/>
<path d="M256.579 13.038C256.311 13.3009 255.557 13.3756 255.634 12.7471C255.698 12.2252 256.266 12.1142 256.882 12.1896C256.836 12.4751 256.784 12.8377 256.579 13.038ZM255.731 11.0019C255.705 11.1459 255.666 11.2762 255.634 11.414C255.941 11.3369 256.899 11.1005 256.991 11.5109C257.022 11.6473 256.969 11.7922 256.931 11.8988C256.065 11.8167 255.359 11.9606 255.173 12.5774C255.049 12.9906 255.187 13.3972 255.452 13.5107C255.962 13.7292 256.583 13.4789 256.797 13.135C256.775 13.2541 256.754 13.3743 256.761 13.5228H257.209C257.214 13.0933 257.277 12.7457 257.343 12.3593C257.399 12.0302 257.505 11.7044 257.488 11.414C257.45 10.7488 256.348 10.9841 255.731 11.0019ZM260.227 13.244C259.876 13.2516 259.702 13.0344 259.694 12.6744C259.68 12.0439 259.957 11.3435 260.518 11.2806C260.78 11.2514 260.969 11.3122 261.16 11.3776C260.985 12.0858 261.048 13.2264 260.227 13.244ZM261.391 9.91113C261.346 10.3028 261.286 10.6794 261.209 11.0382C259.931 10.6336 259.147 11.5741 259.161 12.735C259.163 12.9595 259.202 13.1821 259.343 13.341C259.584 13.6147 260.277 13.6801 260.627 13.4501C260.695 13.4056 260.764 13.3245 260.809 13.2683C260.843 13.226 260.896 13.1152 260.906 13.147C260.888 13.2701 260.86 13.384 260.857 13.5228H261.33C261.421 12.2161 261.703 11.0999 261.912 9.91113H261.391ZM248.047 13.0501C247.768 13.3454 247.083 13.3409 247.029 12.8441C247.006 12.6279 247.086 12.4012 247.126 12.1775C247.166 11.9511 247.195 11.7339 247.235 11.5351C247.51 11.1998 248.317 11.1593 248.398 11.717C248.47 12.2011 248.278 12.8056 248.047 13.0501ZM248.459 11.0019C248.018 10.8362 247.48 11.034 247.247 11.2221C247.248 11.2304 247.242 11.2316 247.235 11.2322C247.239 11.2288 247.243 11.2255 247.247 11.2221C247.247 11.2214 247.247 11.2208 247.247 11.2201C247.251 11.1391 247.28 11.0828 247.283 11.0019H246.835C246.648 12.2452 246.427 13.4536 246.193 14.6499H246.714C246.789 14.184 246.839 13.6925 246.944 13.2562C247.063 13.7151 247.84 13.6274 248.168 13.4501C248.845 13.0842 249.367 11.3429 248.459 11.0019ZM250.931 11.8745H249.707C249.746 11.5931 249.999 11.2838 250.398 11.2685C250.774 11.2542 251.042 11.4064 250.931 11.8745ZM250.435 10.9534C250.058 10.9824 249.74 11.0908 249.513 11.3291C249.236 11.6214 249.011 12.2677 249.077 12.8562C249.171 13.6958 250.216 13.6657 251.053 13.4622C251.067 13.3149 251.103 13.1889 251.125 13.0501C250.781 13.179 250.183 13.3589 249.829 13.135C249.561 12.9659 249.56 12.5376 249.647 12.1654C250.209 12.1475 250.793 12.1509 251.356 12.1654C251.391 11.9016 251.494 11.614 251.404 11.3534C251.286 11.0094 250.864 10.9204 250.435 10.9534ZM245.853 11.0019C245.839 11.0039 245.84 11.0211 245.841 11.0382C245.726 11.897 245.571 12.7153 245.405 13.5228H245.926C246.051 12.6582 246.195 11.8119 246.374 11.0019H245.853ZM259.452 11.014C258.991 10.7837 258.608 11.1701 258.458 11.4018C258.5 11.2829 258.503 11.1238 258.543 11.0019H258.082C257.958 11.8675 257.808 12.7076 257.634 13.5228H258.167C258.17 13.1887 258.236 12.9415 258.288 12.6138C258.4 11.9142 258.563 11.1469 259.379 11.3776C259.406 11.2593 259.417 11.1251 259.452 11.014ZM253.598 12.9289C253.55 12.8048 253.537 12.5999 253.549 12.4441C253.576 12.0939 253.704 11.6676 253.901 11.4746C254.173 11.2082 254.709 11.2523 255.137 11.4018C255.15 11.2576 255.179 11.129 255.198 10.9898C254.496 10.8752 253.83 10.9465 253.477 11.317C253.131 11.6797 252.904 12.5134 253.064 13.038C253.252 13.6518 254.093 13.6852 254.773 13.4501C254.804 13.3267 254.819 13.1892 254.846 13.0622C254.474 13.2555 253.763 13.3559 253.598 12.9289ZM253.307 11.0019C252.845 10.8153 252.482 11.1307 252.313 11.4261C252.351 11.2947 252.367 11.1407 252.398 11.0019H251.937C251.825 11.8751 251.659 12.6949 251.501 13.5228H252.022C252.095 13.0313 252.127 12.3689 252.289 11.8988C252.418 11.5231 252.757 11.203 253.246 11.3776C253.253 11.239 253.293 11.1333 253.307 11.0019ZM244.908 9.98384C244.834 10.4669 244.75 10.9405 244.666 11.414C244.126 11.4197 243.574 11.4406 243.054 11.4018C243.152 10.9387 243.223 10.4477 243.32 9.98384H242.739C242.53 11.1653 242.341 12.3656 242.108 13.5228H242.702C242.795 12.9292 242.883 12.3295 243.005 11.7654C243.512 11.753 244.118 11.7312 244.605 11.7776C244.505 12.364 244.383 12.9295 244.29 13.5228H244.884C245.075 12.3239 245.276 11.1352 245.514 9.98384H244.908ZM246.387 10.5171C246.491 10.4456 246.624 10.1196 246.471 9.98384C246.423 9.94087 246.342 9.9284 246.229 9.94751C246.124 9.9652 246.064 10.0008 246.023 10.0565C245.957 10.1462 245.897 10.4166 245.999 10.5171C246.098 10.6149 246.32 10.5626 246.387 10.5171Z" fill="#1E1C1C"/>
<path fill-rule="evenodd" clip-rule="evenodd" d="M312 12.4343H310.751C310.375 12.4343 310.101 12.5243 309.907 12.6641V12.4343H308.06C307.765 12.4343 307.419 12.5073 307.255 12.6641V12.4343H303.957V12.6641C303.695 12.4754 303.252 12.4343 303.048 12.4343H300.872V12.6641C300.665 12.4637 300.203 12.4343 299.922 12.4343H297.487L296.93 13.0353L296.409 12.4343H292.772V16.3613H296.34L296.914 15.7507L297.455 16.3613L299.654 16.3632V15.4394H299.87C300.162 15.4439 300.506 15.4322 300.81 15.3014V16.3612H302.624V15.3377H302.711C302.823 15.3377 302.834 15.3423 302.834 15.4535V16.3611H308.345C308.694 16.3611 309.06 16.2718 309.263 16.1098V16.3611H311.011C311.374 16.3611 311.73 16.3103 312 16.1801C312 -5.30548 312 21.4302 312 12.4343Z" fill="white"/>
<path fill-rule="evenodd" clip-rule="evenodd" d="M289.153 11.518L289.413 10.893H289.994L290.254 11.518H292.521V11.0402L292.724 11.52H293.901L294.103 11.0331V11.518H299.739L299.737 10.4921H299.846C299.922 10.4947 299.944 10.5018 299.944 10.6275V11.518H302.859V11.2792C303.094 11.4048 303.46 11.518 303.941 11.518H305.167L305.43 10.893H306.012L306.268 11.518H308.631V10.9243L308.989 11.518H310.883V7.59375H309.009V8.05721L308.746 7.59375H306.823V8.05721L306.582 7.59375H303.985C303.55 7.59375 303.168 7.65426 302.859 7.82289V7.59375H301.067V7.82289C300.87 7.64908 300.602 7.59375 300.305 7.59375H293.756L293.317 8.60731L292.865 7.59375H290.803V8.05721L290.576 7.59375H288.817L288 9.45954V11.518H289.153Z" fill="white"/>
<path fill-rule="evenodd" clip-rule="evenodd" d="M299.901 14.8606C300.49 14.8606 301.075 14.6992 301.075 13.9174C301.075 13.138 300.474 12.9902 299.938 12.9902H297.783L296.925 13.9127L296.095 12.9902H293.382V15.8046H296.054L296.917 14.8729L297.748 15.8046H299.059V14.8606H299.901ZM299.059 14.2891H299.931C300.19 14.2891 300.351 14.1608 300.351 13.9174C300.351 13.6713 300.182 13.5724 299.938 13.5724H299.059V14.2891ZM295.712 15.2181H294.054V14.6581H295.535V14.0839H294.054V13.5723H295.745L296.483 14.3924L295.712 15.2181ZM298.387 15.5486L297.351 14.4023L298.387 13.2923V15.5486Z" fill="#1E1C1C"/>
<path fill-rule="evenodd" clip-rule="evenodd" d="M303.96 14.733C303.903 14.651 303.78 14.552 303.63 14.4967C303.807 14.4264 304.108 14.1972 304.108 13.748C304.108 13.427 303.974 13.2513 303.761 13.1231C303.54 13.0053 303.291 12.9902 302.949 12.9902H301.392V15.8046H302.07V14.7767H302.791C303.037 14.7767 303.187 14.8008 303.286 14.9016C303.398 15.0194 303.396 15.2343 303.395 15.3995C303.395 15.4179 303.395 15.4356 303.395 15.4525V15.8046H304.072V15.2467C304.069 14.9986 304.055 14.8704 303.96 14.733ZM303.222 14.1465C303.132 14.1999 303.02 14.2044 302.889 14.2044H302.07V13.5724H302.9C303.02 13.5724 303.141 13.5749 303.222 13.6232C303.31 13.6688 303.362 13.7559 303.362 13.8763C303.362 13.9968 303.31 14.0938 303.222 14.1465Z" fill="#1E1C1C"/>
<path d="M309.309 14.3203C309.441 14.4558 309.511 14.6269 309.511 14.9165C309.511 15.522 309.132 15.8046 308.451 15.8046H307.137V15.2011H308.446C308.574 15.2011 308.665 15.1842 308.722 15.1314C308.768 15.0879 308.801 15.0247 308.801 14.9479C308.801 14.8659 308.765 14.8008 308.719 14.7617C308.667 14.7188 308.596 14.6993 308.479 14.6993C308.437 14.6979 308.395 14.6967 308.353 14.6956C307.748 14.6792 307.058 14.6605 307.058 13.8282C307.058 13.42 307.315 12.9903 308.022 12.9903H309.375V13.5893H308.137C308.015 13.5893 307.935 13.5939 307.867 13.6401C307.793 13.6857 307.766 13.7534 307.766 13.8426C307.766 13.9488 307.828 14.021 307.913 14.0523C307.984 14.077 308.061 14.0842 308.176 14.0842L308.539 14.0939C308.905 14.1028 309.156 14.166 309.309 14.3203Z" fill="#1E1C1C"/>
<path d="M312 13.5891H310.771C310.648 13.5891 310.566 13.5937 310.498 13.64C310.426 13.6855 310.399 13.7532 310.399 13.8425C310.399 13.9486 310.459 14.0208 310.547 14.0521C310.618 14.0768 310.694 14.084 310.807 14.084L311.172 14.0937C311.541 14.1028 311.787 14.1661 311.937 14.3203C311.961 14.3384 311.976 14.3584 311.991 14.3787L311.996 14.3842L311.998 14.3876L312 14.3899V15.4446C311.836 15.6835 311.517 15.8046 311.085 15.8046H309.782V15.2011H311.079C311.208 15.2011 311.298 15.1842 311.352 15.1314C311.399 15.0879 311.432 15.0247 311.432 14.9479C311.432 14.8659 311.399 14.8008 311.35 14.7617C311.301 14.7188 311.23 14.6993 311.112 14.6993C311.071 14.6979 311.029 14.6967 310.986 14.6956C310.379 14.6792 309.688 14.6605 309.688 13.8282C309.688 13.42 309.948 12.9903 310.656 12.9903H312L312 13.5891Z" fill="#1E1C1C"/>
<path d="M304.482 12.9902H306.733V13.5723H305.154V14.0839H306.695V14.6581H305.154V15.2181L306.733 15.2206V15.8046H304.482V12.9902Z" fill="#1E1C1C"/>
<path fill-rule="evenodd" clip-rule="evenodd" d="M290.163 9.74702L289.702 8.62534L289.243 9.74702H290.163ZM300.335 9.3004C300.242 9.35649 300.132 9.35836 300.001 9.35836H299.181V8.7334H300.012C300.13 8.7334 300.252 8.73866 300.332 8.78415C300.419 8.82514 300.474 8.91239 300.474 9.0329C300.474 9.15587 300.422 9.25482 300.335 9.3004ZM306.181 9.74702L305.714 8.62534L305.25 9.74702H306.181ZM295.283 10.9611H294.592L294.589 8.75748L293.611 10.9611H293.019L292.038 8.75553V10.9611H290.666L290.407 10.3335H289.002L288.74 10.9611H288.008L289.216 8.14746H290.218L291.365 10.8114V8.14746H292.466L293.349 10.0562L294.16 8.14746H295.283V10.9611H295.283ZM298.039 10.9611H295.786V8.14746H298.039V8.73338H296.461V9.24054H298.002V9.8173H296.461V10.3792H298.039V10.9611ZM301.217 8.90524C301.217 9.35384 300.916 9.58561 300.741 9.6552C300.889 9.71121 301.015 9.81017 301.075 9.89215C301.17 10.0321 301.187 10.1571 301.187 10.4084V10.9611H300.506L300.504 10.6063C300.504 10.437 300.52 10.1935 300.397 10.0581C300.299 9.95919 300.149 9.93772 299.906 9.93772H299.182V10.9611H298.507V8.14746H300.059C300.403 8.14746 300.657 8.15654 300.875 8.28223C301.089 8.40792 301.217 8.5914 301.217 8.90524ZM302.296 10.9611H301.608V8.14746H302.296V10.9611ZM310.281 10.9611H309.326L308.047 8.84931V10.9611H306.673L306.411 10.3335H305.009L304.755 10.9611H303.965C303.637 10.9611 303.222 10.8888 302.987 10.6499C302.75 10.411 302.627 10.0874 302.627 9.57577C302.627 9.15848 302.7 8.777 302.99 8.47556C303.208 8.251 303.55 8.14746 304.015 8.14746H304.668V8.75035H304.029C303.782 8.75035 303.643 8.78685 303.509 8.91703C303.394 9.03551 303.316 9.25947 303.316 9.55438C303.316 9.85583 303.376 10.0732 303.501 10.2152C303.605 10.3265 303.794 10.3603 303.971 10.3603H304.274L305.225 8.14755H306.236L307.378 10.8089V8.14755H308.405L309.591 10.1071V8.14755H310.281V10.9611Z" fill="#1E1C1C"/>
<path d="M365.873 2.13672H337.127C336.505 2.13672 336 2.64142 336 3.26399V20.7367C336 21.3593 336.505 21.864 337.127 21.864H365.873C366.495 21.864 367 21.3593 367 20.7367V3.26399C367 2.64142 366.495 2.13672 365.873 2.13672Z" fill="white"/>
<path d="M339.837 5.51074H340.102V12.5596H339.837V5.51074ZM340.368 5.51074H340.633V12.5596H340.368V5.51074ZM341.962 5.51074H342.227V12.5596H341.962V5.51074ZM347.129 5.51074H347.395V12.5596H347.129V5.51074ZM348.857 5.51074H349.122V12.5596H348.857V5.51074ZM350.532 5.51074H350.797V12.5596H350.532V5.51074ZM350.964 5.51074H351.229V12.5596H350.964V5.51074ZM351.396 5.51074H351.661V12.5596H351.396V5.51074ZM351.882 5.51074H352.147V12.5596H351.882V5.51074ZM352.368 5.51074H352.633V12.5596H352.368V5.51074ZM353.718 5.51074H353.984V12.5596H353.718V5.51074ZM357.067 5.51074H357.332V12.5596H357.067V5.51074ZM360.56 5.51074H360.825V12.5596H360.56V5.51074ZM361.515 5.51074H361.78V12.5596H361.515V5.51074ZM362.205 5.51074H362.471V12.5596H362.205V5.51074ZM362.63 5.51074H362.896V12.5596H362.63V5.51074ZM343.715 5.51074H343.98V12.5596H343.715V5.51074ZM341.058 5.51074H341.536V12.5596H341.058V5.51074ZM344.213 5.51074H344.691V12.5596H344.213V5.51074ZM346.428 5.51074H346.906V12.5596H346.428V5.51074ZM347.562 5.51074H348.04V12.5596H347.562V5.51074ZM349.344 5.51074H349.822V12.5596H349.344V5.51074ZM354.426 5.51074H355.169V12.5596H354.426V5.51074ZM355.397 5.51074H355.981V12.5596H355.397V5.51074ZM356.421 5.51074H356.899V12.5596H356.421V5.51074ZM357.776 5.51074H358.573V12.5596H357.776V5.51074ZM359.337 5.51074H360.134V12.5596H359.337V5.51074ZM342.493 5.51074H343.449V12.5596H342.493V5.51074ZM344.971 5.51074H345.714V12.5596H344.971V5.51074Z" fill="#010101"/>
<path d="M340.181 18.8182V14.7837H341.695C341.948 14.7739 342.2 14.8155 342.436 14.906C342.618 14.9834 342.77 15.1152 342.874 15.283C342.976 15.4419 343.031 15.6267 343.032 15.8157C343.032 15.988 342.983 16.1568 342.892 16.3027C342.788 16.4634 342.641 16.5913 342.468 16.6713C342.691 16.7284 342.889 16.8569 343.032 17.0371C343.164 17.2129 343.233 17.4281 343.228 17.6481C343.23 17.8306 343.189 18.011 343.109 18.1751C343.041 18.3222 342.939 18.451 342.812 18.551C342.679 18.6461 342.529 18.7139 342.37 18.7505C342.157 18.7995 341.938 18.8222 341.719 18.8182H340.181ZM340.715 16.4791H341.588C341.758 16.4858 341.928 16.47 342.095 16.4323C342.216 16.4014 342.324 16.3308 342.401 16.2316C342.473 16.1285 342.509 16.0049 342.505 15.8794C342.507 15.7548 342.474 15.6321 342.408 15.526C342.346 15.4252 342.249 15.3507 342.135 15.3163C341.934 15.27 341.728 15.2511 341.522 15.2599H340.715V16.4791ZM340.715 18.3425H341.719C341.841 18.3456 341.962 18.3392 342.083 18.3233C342.192 18.3056 342.297 18.2674 342.391 18.2106C342.478 18.1547 342.548 18.0769 342.595 17.9851C342.649 17.8809 342.677 17.7646 342.675 17.6469C342.679 17.5066 342.638 17.3685 342.559 17.2524C342.481 17.1408 342.368 17.0585 342.239 17.0185C342.046 16.9665 341.847 16.9437 341.648 16.9508H340.715V18.3425ZM344.008 16.8533C343.975 16.2785 344.168 15.7134 344.548 15.2802C344.727 15.0925 344.943 14.9447 345.183 14.8468C345.423 14.7489 345.681 14.7029 345.94 14.7121C346.294 14.7072 346.643 14.7996 346.948 14.9792C347.244 15.1545 347.482 15.4135 347.631 15.7238C347.792 16.0617 347.873 16.4323 347.866 16.8065C347.873 17.1871 347.788 17.5636 347.619 17.9045C347.466 18.2148 347.221 18.4706 346.917 18.6372C346.617 18.8026 346.28 18.8884 345.938 18.8864C345.579 18.8923 345.227 18.7972 344.92 18.6119C344.625 18.4329 344.388 18.1716 344.239 17.86C344.086 17.5466 344.007 17.2021 344.008 16.8533ZM344.559 16.8618C344.536 17.2816 344.678 17.6938 344.954 18.011C345.078 18.1474 345.23 18.2554 345.4 18.3278C345.57 18.4003 345.753 18.4354 345.938 18.4309C346.123 18.4357 346.308 18.4002 346.478 18.3269C346.649 18.2537 346.802 18.1444 346.926 18.0065C347.205 17.6699 347.344 17.2396 347.316 16.8037C347.323 16.5086 347.267 16.2153 347.152 15.9436C347.05 15.7093 346.88 15.5109 346.665 15.3738C346.449 15.2384 346.199 15.1681 345.945 15.1714C345.765 15.1687 345.586 15.2017 345.418 15.2686C345.251 15.3354 345.098 15.4348 344.969 15.5609C344.817 15.7388 344.702 15.9457 344.631 16.1692C344.561 16.3926 344.536 16.628 344.559 16.8612V16.8618ZM348.742 18.8182V14.7837H349.276V18.3419H351.262V18.8182H348.742ZM352.118 18.8182V14.7837H355.035V15.2599H352.652V16.4954H354.884V16.9689H352.652V18.3419H355.129V18.8182H352.118ZM357.102 18.8182V15.2599H355.772V14.7837H358.97V15.2599H357.635V18.8182H357.102ZM359.462 16.8533C359.429 16.2783 359.623 15.7132 360.003 15.2802C360.181 15.0925 360.398 14.9447 360.638 14.8468C360.878 14.7489 361.136 14.7029 361.395 14.7121C361.749 14.7072 362.098 14.7996 362.403 14.9792C362.699 15.1545 362.937 15.4135 363.086 15.7238C363.247 16.0617 363.328 16.4323 363.321 16.8065C363.328 17.1871 363.243 17.5636 363.074 17.9045C362.92 18.2154 362.674 18.4714 362.37 18.6378C362.07 18.8031 361.733 18.8889 361.39 18.8869C361.032 18.8928 360.679 18.7975 360.372 18.6119C360.077 18.4327 359.841 18.1713 359.693 17.86C359.54 17.5466 359.461 17.2021 359.462 16.8533ZM360.013 16.8618C359.99 17.2816 360.131 17.6938 360.407 18.011C360.532 18.1474 360.684 18.2554 360.854 18.3278C361.024 18.4003 361.207 18.4354 361.391 18.4309C361.578 18.4362 361.763 18.4011 361.934 18.3279C362.105 18.2547 362.259 18.1453 362.383 18.0071C362.662 17.6705 362.801 17.2402 362.773 16.8043C362.779 16.5088 362.721 16.2155 362.604 15.9442C362.502 15.7099 362.332 15.5114 362.117 15.3743C361.901 15.239 361.651 15.1687 361.397 15.172C361.217 15.1693 361.038 15.2023 360.87 15.2691C360.703 15.336 360.55 15.4353 360.421 15.5615C360.269 15.7394 360.155 15.9463 360.084 16.1696C360.014 16.3929 359.989 16.6282 360.012 16.8612L360.013 16.8618Z" fill="black"/>
</svg>
